<svg width="29" height="29" viewBox="0 0 29 29" fill="none" xmlns="http://www.w3.org/2000/svg">
<g id="ri:robot-2-line" clip-path="url(#clip0_278_579)">
<path id="Vector" d="M16.0771 2.97739C16.0771 3.50188 15.8491 3.97321 15.4864 4.29806V6.52121H21.3928C22.3327 6.52121 23.2341 6.89458 23.8987 7.55918C24.5633 8.22377 24.9366 9.12515 24.9366 10.065V21.8778C24.9366 22.8176 24.5633 23.719 23.8987 24.3836C23.2341 25.0482 22.3327 25.4216 21.3928 25.4216H7.21752C6.27764 25.4216 5.37626 25.0482 4.71166 24.3836C4.04707 23.719 3.6737 22.8176 3.6737 21.8778V10.065C3.6737 9.12515 4.04707 8.22377 4.71166 7.55918C5.37626 6.89458 6.27764 6.52121 7.21752 6.52121H13.1239V4.29806C12.9036 4.10101 12.7361 3.85199 12.6366 3.57366C12.5371 3.29533 12.5089 2.99655 12.5544 2.7045C12.5999 2.41246 12.7177 2.13644 12.8972 1.90158C13.0766 1.66672 13.312 1.48048 13.5818 1.35982C13.8516 1.23916 14.1473 1.18791 14.442 1.21074C14.7367 1.23357 15.021 1.32975 15.269 1.49052C15.517 1.6513 15.7209 1.87156 15.862 2.13126C16.0031 2.39095 16.0771 2.68183 16.0771 2.97739ZM7.21752 8.88376C6.90423 8.88376 6.60377 9.00822 6.38224 9.22975C6.1607 9.45128 6.03625 9.75174 6.03625 10.065V21.8778C6.03625 22.1911 6.1607 22.4915 6.38224 22.7131C6.60377 22.9346 6.90423 23.059 7.21752 23.059H21.3928C21.7061 23.059 22.0066 22.9346 22.2281 22.7131C22.4496 22.4915 22.5741 22.1911 22.5741 21.8778V10.065C22.5741 9.75174 22.4496 9.45128 22.2281 9.22975C22.0066 9.00822 21.7061 8.88376 21.3928 8.88376H7.21752ZM2.49243 12.4276H0.129883V19.5152H2.49243V12.4276ZM26.1179 12.4276H28.4804V19.5152H26.1179V12.4276ZM10.7613 17.7433C11.2313 17.7433 11.682 17.5566 12.0143 17.2243C12.3466 16.892 12.5333 16.4413 12.5333 15.9714C12.5333 15.5015 12.3466 15.0508 12.0143 14.7185C11.682 14.3862 11.2313 14.1995 10.7613 14.1995C10.2914 14.1995 9.84071 14.3862 9.50841 14.7185C9.17612 15.0508 8.98943 15.5015 8.98943 15.9714C8.98943 16.4413 9.17612 16.892 9.50841 17.2243C9.84071 17.5566 10.2914 17.7433 10.7613 17.7433ZM17.849 17.7433C18.3189 17.7433 18.7696 17.5566 19.1019 17.2243C19.4342 16.892 19.6209 16.4413 19.6209 15.9714C19.6209 15.5015 19.4342 15.0508 19.1019 14.7185C18.7696 14.3862 18.3189 14.1995 17.849 14.1995C17.379 14.1995 16.9283 14.3862 16.5961 14.7185C16.2638 15.0508 16.0771 15.5015 16.0771 15.9714C16.0771 16.4413 16.2638 16.892 16.5961 17.2243C16.9283 17.5566 17.379 17.7433 17.849 17.7433Z" fill="#EF9E00"/>
</g>
<defs>
<clipPath id="clip0_278_579">
<rect width="28.3506" height="28.3506" fill="white" transform="translate(0.129883 0.614868)"/>
</clipPath>
</defs>
</svg>
