<svg width="37" height="36" viewBox="0 0 37 36" fill="none" xmlns="http://www.w3.org/2000/svg">
<g id="carbon:send">
<path id="Vector" d="M31.0411 16.9505L6.36897 4.61441C6.17559 4.5177 5.95839 4.47896 5.74351 4.50283C5.52862 4.52671 5.32522 4.61219 5.15779 4.74899C4.9979 4.88299 4.87855 5.05894 4.81318 5.25706C4.7478 5.45517 4.73898 5.66759 4.78771 5.87045L8.10723 17.9486L4.74285 29.993C4.69712 30.1625 4.69179 30.3402 4.72727 30.5121C4.76275 30.6839 4.83805 30.845 4.94713 30.9825C5.05621 31.1199 5.19602 31.2298 5.35532 31.3034C5.51461 31.377 5.68895 31.4122 5.86431 31.4061C6.03987 31.405 6.21272 31.3628 6.36897 31.2827L31.0411 18.9467C31.2248 18.8526 31.3789 18.7096 31.4866 18.5335C31.5942 18.3574 31.6512 18.155 31.6512 17.9486C31.6512 17.7422 31.5942 17.5398 31.4866 17.3637C31.3789 17.1876 31.2248 17.0446 31.0411 16.9505ZM7.60257 28.1651L10.081 19.07H20.4433V16.8271H10.081L7.60257 7.73207L28.0244 17.9486L7.60257 28.1651Z" fill="#EF9E00"/>
</g>
</svg>
