<svg width="48" height="50" viewBox="0 0 48 50" fill="none" xmlns="http://www.w3.org/2000/svg">
<g id="ri:robot-2-line" clip-path="url(#clip0_278_568)">
<path id="Vector" d="M26.7999 5.85688C26.7999 6.74403 26.4143 7.54127 25.8009 8.09074V11.8511H35.7913C37.3811 11.8511 38.9058 12.4827 40.0299 13.6068C41.1541 14.731 41.7856 16.2556 41.7856 17.8454V37.8263C41.7856 39.416 41.1541 40.9407 40.0299 42.0648C38.9058 43.189 37.3811 43.8205 35.7913 43.8205H11.8143C10.2245 43.8205 8.69985 43.189 7.57571 42.0648C6.45157 40.9407 5.82003 39.416 5.82003 37.8263V17.8454C5.82003 16.2556 6.45157 14.731 7.57571 13.6068C8.69985 12.4827 10.2245 11.8511 11.8143 11.8511H21.8047V8.09074C21.4321 7.75744 21.1487 7.33623 20.9805 6.86545C20.8123 6.39466 20.7644 5.88927 20.8414 5.39529C20.9184 4.90131 21.1177 4.43444 21.4213 4.03718C21.7248 3.63992 22.1229 3.3249 22.5793 3.1208C23.0357 2.91671 23.5358 2.83002 24.0343 2.86863C24.5327 2.90725 25.0136 3.06994 25.4331 3.34188C25.8526 3.61383 26.1975 3.9864 26.4362 4.42567C26.6749 4.86493 26.8 5.35694 26.7999 5.85688ZM11.8143 15.8473C11.2844 15.8473 10.7761 16.0578 10.4014 16.4325C10.0267 16.8073 9.81621 17.3155 9.81621 17.8454V37.8263C9.81621 38.3562 10.0267 38.8644 10.4014 39.2391C10.7761 39.6138 11.2844 39.8244 11.8143 39.8244H35.7913C36.3213 39.8244 36.8295 39.6138 37.2042 39.2391C37.5789 38.8644 37.7894 38.3562 37.7894 37.8263V17.8454C37.7894 17.3155 37.5789 16.8073 37.2042 16.4325C36.8295 16.0578 36.3213 15.8473 35.7913 15.8473H11.8143ZM3.82195 21.8416H-0.174225V33.8301H3.82195V21.8416ZM43.7837 21.8416H47.7799V33.8301H43.7837V21.8416ZM17.8086 30.833C18.6034 30.833 19.3658 30.5172 19.9278 29.9551C20.4899 29.3931 20.8057 28.6307 20.8057 27.8358C20.8057 27.0409 20.4899 26.2786 19.9278 25.7165C19.3658 25.1545 18.6034 24.8387 17.8086 24.8387C17.0137 24.8387 16.2513 25.1545 15.6893 25.7165C15.1272 26.2786 14.8114 27.0409 14.8114 27.8358C14.8114 28.6307 15.1272 29.3931 15.6893 29.9551C16.2513 30.5172 17.0137 30.833 17.8086 30.833ZM29.7971 30.833C30.592 30.833 31.3543 30.5172 31.9164 29.9551C32.4784 29.3931 32.7942 28.6307 32.7942 27.8358C32.7942 27.0409 32.4784 26.2786 31.9164 25.7165C31.3543 25.1545 30.592 24.8387 29.7971 24.8387C29.0022 24.8387 28.2399 25.1545 27.6778 25.7165C27.1157 26.2786 26.7999 27.0409 26.7999 27.8358C26.7999 28.6307 27.1157 29.3931 27.6778 29.9551C28.2399 30.5172 29.0022 30.833 29.7971 30.833Z" fill="#EF9E00"/>
</g>
<defs>
<clipPath id="clip0_278_568">
<rect width="48" height="50" fill="white"/>
</clipPath>
</defs>
</svg>
