<svg width="110" height="36" viewBox="0 0 110 36" fill="none" xmlns="http://www.w3.org/2000/svg">
<g id="Vector">
<path d="M0.719391 27.2096V0.771667H4.79275V16.1495H13.2714V8.16483H17.3447V27.2096H13.2714V19.225H4.79275V27.2096H0.719391ZM28.9927 27.5054C26.5185 27.5054 24.5572 26.904 23.1089 25.7014C21.6606 24.4791 20.9365 22.6358 20.9365 20.1713C20.9365 17.9435 21.5399 16.179 22.7468 14.8778C23.9739 13.5569 25.7943 12.8965 28.2083 12.8965C30.4209 12.8965 32.1106 13.4682 33.2772 14.6117C34.4641 15.7354 35.0575 17.2141 35.0575 19.0476V21.5908H24.7081C24.9294 22.7146 25.4524 23.4835 26.2771 23.8975C27.1219 24.3115 28.3088 24.5185 29.8375 24.5185C30.6019 24.5185 31.3763 24.4495 32.1608 24.3115C32.9655 24.1735 33.6494 23.9961 34.2127 23.7792V26.6182C33.5489 26.9139 32.7744 27.1308 31.8893 27.2688C31.0043 27.4265 30.0387 27.5054 28.9927 27.5054ZM24.7081 19.1363H31.4971V18.3674C31.4971 17.5591 31.2557 16.9282 30.7729 16.4748C30.2901 16.0016 29.4754 15.765 28.3289 15.765C26.9812 15.765 26.0357 16.0312 25.4926 16.5635C24.9697 17.0958 24.7081 17.9534 24.7081 19.1363ZM45.9497 27.5054C43.3951 27.5054 41.4339 26.8843 40.066 25.6423C38.7183 24.4002 38.0444 22.5864 38.0444 20.2009C38.0444 17.7365 38.7686 15.903 40.2169 14.7004C41.6852 13.4978 43.6365 12.8965 46.0704 12.8965C47.0762 12.8965 47.9412 12.9655 48.6653 13.1035C49.3895 13.2415 50.0935 13.4682 50.7774 13.7836V16.6522C50.2746 16.4156 49.6912 16.2283 49.0274 16.0903C48.3636 15.9523 47.6495 15.8833 46.8851 15.8833C45.3564 15.8833 44.1896 16.1987 43.385 16.8296C42.5804 17.4408 42.1781 18.5645 42.1781 20.2009C42.1781 21.6992 42.5402 22.7934 43.2643 23.4835C44.0086 24.1735 45.2055 24.5185 46.8549 24.5185C47.559 24.5185 48.2429 24.4495 48.9067 24.3115C49.5906 24.1735 50.2242 23.9665 50.8076 23.6905V26.6478C49.4599 27.2195 47.8405 27.5054 45.9497 27.5054ZM59.8077 27.5054C58.1582 27.5054 56.9311 27.0815 56.1265 26.2337C55.342 25.386 54.9498 24.2327 54.9498 22.7737V16.2677H52.9282V13.1922H54.9498V10.1758L59.0232 8.99287V13.1922H62.6439L62.4025 16.2677H59.0232V22.5076C59.0232 23.2765 59.2042 23.8088 59.5663 24.1045C59.9284 24.3805 60.4916 24.5185 61.256 24.5185C61.8192 24.5185 62.4025 24.4199 63.006 24.2228V26.973C62.5635 27.1505 62.0807 27.2787 61.5577 27.3575C61.0347 27.4561 60.4514 27.5054 59.8077 27.5054ZM73.0018 27.5054C70.3265 27.5054 68.3652 26.8744 67.118 25.6127C65.8708 24.3312 65.78 20.2009 65.78 20.2009C65.78 20.2009 65.8708 16.0804 67.118 14.8187C68.3853 13.5372 70.3465 12.8965 73.0018 12.8965C75.6771 12.8965 77.6383 13.5372 78.8855 14.8187C80.1528 16.0804 80.7864 17.8746 80.7864 20.2009C80.7864 22.5273 80.1629 24.3312 78.9157 25.6127C77.6685 26.8744 75.6973 27.5054 73.0018 27.5054ZM73.0018 24.1045C74.3093 24.1045 75.2447 23.8187 75.8079 23.2469C76.3711 22.6554 76.6527 21.6401 76.6527 20.2009C76.6527 18.7617 76.3711 17.7563 75.8079 17.1845C75.2447 16.593 74.3093 16.2973 73.0018 16.2973C71.7144 16.2973 70.789 16.593 70.2258 17.1845C69.6627 17.7563 69.381 18.7617 69.381 20.2009C69.381 21.6401 69.6627 22.6554 70.2258 23.2469C70.789 23.8187 71.7144 24.1045 73.0018 24.1045ZM91.524 27.5054C88.8487 27.5054 86.8874 26.8744 85.6403 25.6127C84.3931 24.3312 83.7696 22.5273 83.7696 20.2009C83.7696 17.8746 84.3931 16.0804 85.6403 14.8187C86.9076 13.5372 88.8688 12.8965 91.524 12.8965C94.1994 12.8965 96.1605 13.5372 97.408 14.8187C98.6753 16.0804 99.3089 17.8746 99.3089 20.2009C99.3089 22.5273 98.6847 24.3312 97.4382 25.6127C96.1907 26.8744 94.2195 27.5054 91.524 27.5054ZM91.524 24.1045C92.8315 24.1045 93.7669 23.8187 94.3303 23.2469C94.8933 22.6554 95.1752 21.6401 95.1752 20.2009C95.1752 18.7617 94.8933 17.7563 94.3303 17.1845C93.7669 16.593 92.8315 16.2973 91.524 16.2973C90.2366 16.2973 89.3113 16.593 88.7481 17.1845C88.1848 17.7563 87.9033 18.7617 87.9033 20.2009C87.9033 21.6401 88.1848 22.6554 88.7481 23.2469C89.3113 23.8187 90.2366 24.1045 91.524 24.1045Z" fill="#FCFDFF"/>
<path d="M103.892 34.8394C104.535 35.4703 105.552 35.7857 106.94 35.7857C107.966 35.7857 108.861 35.6378 109.625 35.3421V32.5919C109.203 32.7298 108.729 32.7989 108.207 32.7989C107.824 32.7989 107.533 32.7101 107.332 32.5327C107.13 32.3356 107.03 31.9905 107.03 31.4977V8.16483H102.957V31.823C102.957 33.203 103.268 34.2085 103.892 34.8394Z" fill="#FCFDFF"/>
</g>
</svg>
